# AST/ASF file generated using VICON BodyLanguage
# -----------------------------------------------
:version 1.10
:name VICON
:units
  mass 1.0
  length 0.45
  angle deg
:documentation
   .ast/.asf automatically generated from VICON data using
   VICON BodyBuilder and BodyLanguage model FoxedUp or BRILLIANT.MOD
:root
   order TX TY TZ RX RY RZ
   axis XYZ
   position 0 0 0  
   orientation 0 0 0 
:bonedata
  begin
     id 1 
     name lhipjoint
     direction 0.584852 -0.759097 0.285867 
     length 2.43633 
     axis 0 0 0  XYZ
  end
  begin
     id 2 
     name lfemur
     direction 0.34202 -0.939693 0  
     length 7.14704  
     axis 0 0 20  XYZ
    dof rx ry rz
    limits (-160.0 20.0)
           (-70.0 70.0)
           (-60.0 70.0)
  end
  begin
     id 3 
     name ltibia
     direction 0.342022 -0.939692 0   
     length 7.68483   
     axis 0 0 20   XYZ
    dof rx
    limits (-10.0 170.0)
  end
  begin
     id 4 
     name lfoot
     direction 0.0999605 -0.274639 0.956337   
     length 2.40452   
     axis -90 7.62852e-016 20   XYZ
    dof rx rz
    limits (-45.0 90.0)
           (-70.0 20.0)
  end
  begin
     id 5 
     name ltoes
     direction 1.53468e-011 -4.21881e-011 1   
     length 1.19837   
     axis -90 7.62852e-016 20   XYZ
    dof rx
    limits (-90.0 20.0)
  end
  begin
     id 6 
     name rhipjoint
     direction -0.569886 -0.769002 0.289597   
     length 2.40495  
     axis 0 0 0  XYZ 
  end
  begin
     id 7 
     name rfemur
     direction -0.34202 -0.939693 0   
     length 7.45086   
     axis 0 0 -20   XYZ
    dof rx ry rz
    limits (-160.0 20.0)
           (-70.0 70.0)
           (-70.0 60.0)
  end
  begin
     id 8 
     name rtibia
     direction -0.34202 -0.939693 0   
     length 7.76831   
     axis 0 0 -20   XYZ
    dof rx
    limits (-10.0 170.0)
 end
 begin
     id 9 
     name rfoot
     direction -0.0798572 -0.219406 0.97236   
     length 2.35911  
     axis -90 -7.62852e-016 -20   XYZ
    dof rx rz
    limits (-45.0 90.0)
           (-20.0 70.0)
  end
  begin
     id 10 
     name rtoes
     direction -1.53469e-011 -4.21728e-011 1   
     length 1.18261   
     axis -90 -7.62852e-016 -20   XYZ
    dof rx
    limits (-90.0 20.0)
  end
  begin
     id 11 
     name lowerback
     direction 0.0242088 0.999437 0.0232389   
     length 2.1561   
     axis 0 0 0   XYZ
    dof rx ry rz
    limits (-20.0 45.0)
           (-30.0 30.0)
           (-30.0 30.0)
  end
  begin
     id 12 
     name upperback
     direction -0.0356893 0.999013 -0.0264323   
     length 2.14431   
     axis 0 0 0   XYZ
    dof rx ry rz
    limits (-20.0 45.0)
           (-30.0 30.0)
           (-30.0 30.0)
  end
  begin
     id 13 
     name thorax
     direction -0.0472163 0.998194 -0.0371284   
     length 2.16169   
     axis 0 0 0   XYZ
    dof rx ry rz
    limits (-20.0 45.0)
           (-30.0 30.0)
           (-30.0 30.0)
  end
  begin
     id 14 
     name lowerneck
     direction 0.00863244 0.999921 0.00911972   
     length 1.58651   
     axis 0 0 0   XYZ
    dof rx ry rz
    limits (-20.0 45.0)
           (-30.0 30.0)
           (-30.0 30.0)
  end
  begin
     id 15 
     name upperneck
     direction 0.149523 0.979068 -0.138086   
     length 1.57486   
     axis 0 0 0   XYZ
    dof rx ry rz
    limits (-20.0 45.0)
           (-30.0 30.0)
           (-30.0 30.0)
  end
  begin
     id 16
     name head
     direction 0.0445219 0.997708 -0.0509576  
     length 1.6019  
     axis 0 0 0   XYZ
    dof rx ry rz
    limits (-20.0 45.0)
           (-30.0 30.0)
           (-30.0 30.0)
  end
  begin
     id 17 
     name lclavicle
     direction 0.911271 0.381667 -0.154644  
     length 3.80848  
     axis 0 0 0   XYZ
    dof ry rz
    limits (-20.0 10.0)
           (0.0 20.0)
  end
  begin
     id 18 
     name lhumerus
     direction 1 -4.49003e-011 2.1308e-027   
     length 5.19069   
     axis 180 -30 -90   XYZ
    dof rx ry rz
    limits (-60.0 90.0)
           (-90.0 90.0)
           (-90.0 90.0)
  end
  begin
     id 19
     name lradius
     direction 1 -4.48914e-011 4.01554e-027   
     length 3.30016   
     axis 180 -30 -90   XYZ
    dof rx
    limits (-10.0 170.0)
  end
  begin
     id 20
     name lwrist
     direction 1 -4.49003e-011 1.1934e-026   
     length 1.65008   
     axis -8.46377e-015 90 90   XYZ
    dof ry
    limits (-180.0 0.0)
 end
  begin
     id 21 
     name lhand
     direction 1 -4.49034e-011 2.38659e-026   
     length 0.707698   
     axis -1.52313e-014 90 90   XYZ
    dof rx rz
    limits (-90.0 90.0)
           (-45.0 45.0)
  end
  begin
     id 22 
     name lfingers
     direction 1 -4.48691e-011 4.77775e-026   
     length 0.570564   
     axis -3.04623e-014 90 90   XYZ
    dof rx
    limits (0.0 90.0)
  end
  begin
     id 23
     name lthumb
     direction 0.707107 -6.34832e-011 0.707107   
     length 0.819219   
     axis -90 45 -1.62303e-014   XYZ
    dof rx rz
    limits (-45.0 45.0)
           (-45.0 45.0)
  end
  begin
     id 24 
     name rclavicle
     direction -0.815579 0.573708 -0.0754329   
     length 3.54371  
     axis 0 0 0   XYZ 
    dof ry rz
    limits (-10.0 20.0)
           (-20.0 0.0)
  end
  begin
     id 25 
     name rhumerus
     direction -1 -4.48956e-011 3.05351e-028  
     length 5.23924   
     axis 180 30 90   XYZ
    dof rx ry rz
    limits (-90.0 60.0)
           (-90.0 90.0)
           (-90.0 90.0)
  end
  begin
     id 26 
     name rradius
     direction -1 -4.49013e-011 3.53849e-027   
     length 3.32953   
     axis 180 30 90   XYZ
    dof rx
    limits (-10.0 170.0)
  end
  begin
     id 27 
     name rwrist
     direction -1 -4.48901e-011 1.19374e-026   
     length 1.66477   
     axis -8.46377e-015 -90 -90   XYZ
    dof ry
    limits (-180.0 0.0)
  end
  begin
     id 28
     name rhand
     direction -1 -4.48877e-011 2.38764e-026   
     length 0.607414   
     axis -1.52313e-014 -90 -90   XYZ
    dof rx rz
    limits (-90.0 90.0)
           (-45.0 45.0)
  end
  begin
     id 29
     name rfingers
     direction -1 -4.48882e-011 4.77521e-026   
     length 0.489712   
     axis -3.04623e-014 -90 -90   XYZ
    dof rx
    limits (0.0 90.0)
  end
  begin
     id 30
     name rthumb
     direction -0.707107 -6.34974e-011 0.707107   
     length 0.703132   
     axis -90 -45 1.62303e-014   XYZ
    dof rx rz
    limits (-45.0 45.0)
           (-45.0 45.0)
  end
:hierarchy
  begin
    root lhipjoint rhipjoint lowerback
    lhipjoint lfemur
    lfemur ltibia
    ltibia lfoot
    lfoot ltoes
    rhipjoint rfemur
    rfemur rtibia
    rtibia rfoot
    rfoot rtoes
    lowerback upperback
    upperback thorax
    thorax lowerneck lclavicle rclavicle
    lowerneck upperneck
    upperneck head
    lclavicle lhumerus
    lhumerus lradius
    lradius lwrist
    lwrist lhand lthumb
    lhand lfingers
    rclavicle rhumerus
    rhumerus rradius
    rradius rwrist
    rwrist rhand rthumb
    rhand rfingers
  end

#!OML:ASF E:\VariousWalksJay\Project 1\Capture day 1\Session 1\Actor2.ASF
:FULLY-SPECIFIED
:DEGREES
1
root 16.154 17.6306 -29.4661 6.29305 -17.0402 -4.8008
lowerback -3.03516 -1.39845 2.21321
upperback 3.14991 -1.93014 -1.39067
thorax 4.83915 -0.854994 -2.81877
lowerneck -1.9253 -9.5564 -11.1378
upperneck -2.10496 -12.8305 19.6661
head 1.78925 -6.38169 7.3275
rclavicle 8.15017e-015 -1.03368e-014
rhumerus -32.7793 7.97946 -89.5892
rradius 34.1012
rwrist -3.23596
rhand -12.3018 -7.89694
rfingers 7.12502
rthumb 13.7661 -37.4215
lclavicle 8.15017e-015 -1.03368e-014
lhumerus -23.3861 -8.77138 79.6723
lradius 35.4849
lwrist 10.8747
lhand -11.3462 -4.81446
lfingers 7.12502
lthumb 14.687 24.6453
rfemur -19.0865 -3.57667 23.9276
rtibia 42.4223
rfoot -22.827 -16.3139
rtoes -11.7578
lfemur -12.9995 9.7068 -17.4829
ltibia 28.7486
lfoot -21.6567 8.36844
ltoes -1.93319
2
root 16.1633 17.6311 -29.4652 6.29115 -17.1648 -4.71301
lowerback -3.09229 -1.30736 2.10318
upperback 3.23574 -1.79697 -1.54973
thorax 4.96838 -0.786708 -2.91694
lowerneck -2.37776 -9.70001 -10.8091
upperneck -1.9604 -13.0242 19.6413
head 1.91307 -6.45252 7.22345
rclavicle 1.72943e-014 4.77083e-015
rhumerus -32.662 7.60134 -89.6163
rradius 34.1521
rwrist -3.2532
rhand -12.2253 -7.83971
rfingers 7.12502
rthumb 13.8399 -37.3593
lclavicle 1.72943e-014 4.77083e-015
lhumerus -22.7037 -9.47611 79.4843
lradius 34.9174
lwrist 11.0031
lhand -11.3814 -4.74892
lfingers 7.12502
lthumb 14.653 24.7133
rfemur -19.3375 -3.35821 23.7663
rtibia 42.7465
rfoot -22.9887 -16.1273
rtoes -12.4784
lfemur -12.9899 9.8545 -17.6254
ltibia 28.7021
lfoot -21.6279 8.3599
ltoes -1.94737
3
root 16.1711 17.6298 -29.4615 6.31582 -17.4689 -4.79627
lowerback -3.05685 -1.31647 1.98928
upperback 3.07365 -1.80484 -1.48049
thorax 4.78326 -0.800683 -2.77671
lowerneck -2.33529 -9.612 -11
upperneck -1.74643 -12.9332 19.6789
head 1.96899 -6.40092 7.27133
rclavicle 2.38542e-014 -9.54166e-015
rhumerus -32.9757 7.84624 -89.6181
rradius 34.1267
rwrist -3.25084
rhand -12.198 -7.83308
rfingers 7.12502
rthumb 13.8662 -37.3508
lclavicle 2.38542e-014 -9.54166e-015
lhumerus -22.8802 -9.4017 79.4988
lradius 34.681
lwrist 10.904
lhand -11.5253 -4.79213
lfingers 7.12502
lthumb 14.5144 24.6802
rfemur -19.4823 -2.86496 23.7638
rtibia 42.8399
rfoot -23.1899 -15.7322
rtoes -13.728
lfemur -12.936 9.85297 -17.6009
ltibia 28.6916
lfoot -21.7134 8.60166
ltoes -1.83405
4
root 16.1806 17.6271 -29.4485 6.17752 -17.6619 -4.87315
lowerback -3.13185 -1.40042 2.01209
upperback 3.06811 -1.92055 -1.45509
thorax 4.81319 -0.857357 -2.7733
lowerneck -1.92834 -9.45545 -11.2634
upperneck -1.77792 -12.7405 19.7549
head 1.88445 -6.32596 7.37605
rclavicle -8.15017e-015 -3.18055e-015
rhumerus -33.274 8.30703 -89.7123
rradius 34.2587
rwrist -3.31768
rhand -12.1516 -7.98432
rfingers 7.12502
rthumb 13.9109 -37.499
lclavicle -8.15017e-015 -3.18055e-015
lhumerus -22.9815 -9.19862 79.401
lradius 34.4445
lwrist 10.8479
lhand -11.4301 -4.76761
lfingers 7.12502
lthumb 14.6061 24.6981
rfemur -19.3981 -2.47387 23.7312
rtibia 42.8876
rfoot -23.8095 -14.7137
rtoes -13.5776
lfemur -12.6754 9.79764 -17.5578
ltibia 28.6764
lfoot -21.8301 8.82658
ltoes -1.83176
5
root 16.184 17.6277 -29.4454 6.14966 -17.6412 -4.89368
lowerback -3.16854 -1.35739 2.01859
upperback 3.16739 -1.86062 -1.5413
thorax 4.93883 -0.822708 -2.86591
lowerneck -2.32567 -9.58028 -11.039
upperneck -1.70264 -12.9023 19.7908
head 1.98661 -6.38494 7.31488
rclavicle -4.8901e-014 0
rhumerus -33.1558 7.95691 -89.706
rradius 34.2105
rwrist -3.29587
rhand -12.1528 -7.88819
rfingers 7.12502
rthumb 13.9097 -37.403
lclavicle -4.8901e-014 0
lhumerus -22.5704 -9.56927 79.2779
lradius 34.0584
lwrist 10.7723
lhand -11.4046 -4.85654
lfingers 7.12502
lthumb 14.6307 24.6073
rfemur -19.4697 -2.06547 23.7275
rtibia 42.7964
rfoot -24.1534 -14.0039
rtoes -14.5083
lfemur -12.6348 9.70636 -17.5475
ltibia 28.6791
lfoot -21.8223 8.91834
ltoes -1.85805
